<svg xmlns="http://www.w3.org/2000/svg" viewBox="0 0 1480 1680" font-family="Segoe UI, -apple-system, Helvetica, Arial, sans-serif">
  <defs>
    <filter id="shadow" x="-2%" y="-2%" width="104%" height="104%">
      <feDropShadow dx="0" dy="2" stdDeviation="3" flood-color="#00000020"/>
    </filter>
    <filter id="shadowLight" x="-2%" y="-2%" width="104%" height="104%">
      <feDropShadow dx="0" dy="1" stdDeviation="2" flood-color="#00000015"/>
    </filter>
    <linearGradient id="headerGrad" x1="0%" y1="0%" x2="100%" y2="0%">
      <stop offset="0%" stop-color="#1a1a2e"/>
      <stop offset="100%" stop-color="#16213e"/>
    </linearGradient>
    <linearGradient id="appTeamGrad" x1="0%" y1="0%" x2="0%" y2="100%">
      <stop offset="0%" stop-color="#e0f2fe"/>
      <stop offset="100%" stop-color="#bae6fd"/>
    </linearGradient>
    <linearGradient id="adoGrad" x1="0%" y1="0%" x2="0%" y2="100%">
      <stop offset="0%" stop-color="#ede9fe"/>
      <stop offset="100%" stop-color="#ddd6fe"/>
    </linearGradient>
    <linearGradient id="mdpGrad" x1="0%" y1="0%" x2="0%" y2="100%">
      <stop offset="0%" stop-color="#fce7f3"/>
      <stop offset="100%" stop-color="#fbcfe8"/>
    </linearGradient>
    <linearGradient id="azureGrad" x1="0%" y1="0%" x2="0%" y2="100%">
      <stop offset="0%" stop-color="#dbeafe"/>
      <stop offset="100%" stop-color="#bfdbfe"/>
    </linearGradient>
    <linearGradient id="pgeGrad" x1="0%" y1="0%" x2="0%" y2="100%">
      <stop offset="0%" stop-color="#fef3c7"/>
      <stop offset="100%" stop-color="#fde68a"/>
    </linearGradient>
    <linearGradient id="finopsGrad" x1="0%" y1="0%" x2="0%" y2="100%">
      <stop offset="0%" stop-color="#d1fae5"/>
      <stop offset="100%" stop-color="#a7f3d0"/>
    </linearGradient>
    <marker id="arrowBlue" markerWidth="10" markerHeight="7" refX="9" refY="3.5" orient="auto">
      <polygon points="0 0, 10 3.5, 0 7" fill="#3b82f6"/>
    </marker>
    <marker id="arrowPurple" markerWidth="10" markerHeight="7" refX="9" refY="3.5" orient="auto">
      <polygon points="0 0, 10 3.5, 0 7" fill="#7c3aed"/>
    </marker>
    <marker id="arrowOrange" markerWidth="10" markerHeight="7" refX="9" refY="3.5" orient="auto">
      <polygon points="0 0, 10 3.5, 0 7" fill="#d97706"/>
    </marker>
    <marker id="arrowGreen" markerWidth="10" markerHeight="7" refX="9" refY="3.5" orient="auto">
      <polygon points="0 0, 10 3.5, 0 7" fill="#059669"/>
    </marker>
    <marker id="arrowRed" markerWidth="10" markerHeight="7" refX="9" refY="3.5" orient="auto">
      <polygon points="0 0, 10 3.5, 0 7" fill="#dc2626"/>
    </marker>
    <marker id="arrowGray" markerWidth="10" markerHeight="7" refX="9" refY="3.5" orient="auto">
      <polygon points="0 0, 10 3.5, 0 7" fill="#6b7280"/>
    </marker>
  </defs>

  <!-- Background -->
  <rect width="1480" height="1680" fill="#f8fafc" rx="0"/>

  <!-- Title Header -->
  <rect x="0" y="0" width="1480" height="80" fill="url(#headerGrad)"/>
  <text x="700" y="38" text-anchor="middle" fill="#ffffff" font-size="22" font-weight="700" letter-spacing="0.5">EPIC Self-Hosted Agent Architecture</text>
  <text x="700" y="62" text-anchor="middle" fill="#94a3b8" font-size="13">Managed DevOps Pools  ·  Single Pool  ·  Centrally Managed by CI/CD Pipeline Team</text>

  <!-- ================================================================== -->
  <!-- LAYER 1: APPLICATION TEAMS -->
  <!-- ================================================================== -->
  <rect x="30" y="100" width="1340" height="200" rx="12" fill="url(#appTeamGrad)" stroke="#0284c7" stroke-width="1.5" filter="url(#shadow)"/>
  <rect x="30" y="100" width="1340" height="36" rx="12" fill="#0284c7"/>
  <rect x="30" y="124" width="1340" height="12" fill="#0284c7"/>
  <text x="50" y="123" fill="#ffffff" font-size="14" font-weight="700">APPLICATION TEAMS</text>
  <text x="1350" y="123" text-anchor="end" fill="#bae6fd" font-size="11">Owned by App Teams — one-time epic.json setup</text>

  <!-- App Repo 1 -->
  <rect x="60" y="155" width="260" height="125" rx="8" fill="#ffffff" stroke="#0284c7" stroke-width="1" filter="url(#shadowLight)"/>
  <text x="190" y="177" text-anchor="middle" fill="#0c4a6e" font-size="13" font-weight="600">App Repo A</text>
  <rect x="80" y="188" width="220" height="78" rx="6" fill="#f0f9ff" stroke="#7dd3fc" stroke-width="0.75"/>
  <text x="90" y="206" fill="#0369a1" font-size="10" font-weight="600" font-family="monospace">.pipeline/epic.json</text>
  <line x1="80" y1="213" x2="300" y2="213" stroke="#7dd3fc" stroke-width="0.5"/>
  <text x="90" y="228" fill="#475569" font-size="9.5" font-family="monospace">"app": { appName, appType }</text>
  <text x="90" y="243" fill="#475569" font-size="9.5" font-family="monospace">"cloud": { awsAccountId }</text>
  <text x="90" y="258" fill="#dc2626" font-size="9.5" font-weight="600" font-family="monospace">"chargeback": { costCenter,</text>
  <text x="90" y="270" fill="#dc2626" font-size="9.5" font-weight="600" font-family="monospace">  businessUnit } ← REQUIRED</text>

  <!-- App Repo 2 -->
  <rect x="350" y="155" width="260" height="125" rx="8" fill="#ffffff" stroke="#0284c7" stroke-width="1" filter="url(#shadowLight)"/>
  <text x="480" y="177" text-anchor="middle" fill="#0c4a6e" font-size="13" font-weight="600">App Repo B</text>
  <rect x="370" y="188" width="220" height="78" rx="6" fill="#f0f9ff" stroke="#7dd3fc" stroke-width="0.75"/>
  <text x="380" y="206" fill="#0369a1" font-size="10" font-weight="600" font-family="monospace">.pipeline/epic.json</text>
  <line x1="370" y1="213" x2="590" y2="213" stroke="#7dd3fc" stroke-width="0.5"/>
  <text x="380" y="228" fill="#475569" font-size="9.5" font-family="monospace">"app": { appName, appType }</text>
  <text x="380" y="243" fill="#475569" font-size="9.5" font-family="monospace">"cloud": { azureSubId }</text>
  <text x="380" y="258" fill="#dc2626" font-size="9.5" font-weight="600" font-family="monospace">"chargeback": { costCenter,</text>
  <text x="380" y="270" fill="#dc2626" font-size="9.5" font-weight="600" font-family="monospace">  businessUnit } ← REQUIRED</text>

  <!-- App Repo 3 -->
  <rect x="640" y="155" width="260" height="125" rx="8" fill="#ffffff" stroke="#0284c7" stroke-width="1" filter="url(#shadowLight)"/>
  <text x="770" y="177" text-anchor="middle" fill="#0c4a6e" font-size="13" font-weight="600">App Repo C</text>
  <rect x="660" y="188" width="220" height="78" rx="6" fill="#f0f9ff" stroke="#7dd3fc" stroke-width="0.75"/>
  <text x="670" y="206" fill="#0369a1" font-size="10" font-weight="600" font-family="monospace">.pipeline/epic.json</text>
  <line x1="660" y1="213" x2="880" y2="213" stroke="#7dd3fc" stroke-width="0.5"/>
  <text x="670" y="228" fill="#475569" font-size="9.5" font-family="monospace">"app": { appName, appType }</text>
  <text x="670" y="243" fill="#475569" font-size="9.5" font-family="monospace">"cloud": { awsAccountId }</text>
  <text x="670" y="258" fill="#dc2626" font-size="9.5" font-weight="600" font-family="monospace">"chargeback": { costCenter,</text>
  <text x="670" y="270" fill="#dc2626" font-size="9.5" font-weight="600" font-family="monospace">  businessUnit } ← REQUIRED</text>

  <!-- App Repo N -->
  <rect x="930" y="155" width="180" height="125" rx="8" fill="#ffffff" stroke="#0284c7" stroke-width="1" stroke-dasharray="6,3" filter="url(#shadowLight)"/>
  <text x="1020" y="215" text-anchor="middle" fill="#64748b" font-size="14" font-weight="500">App Repo N ...</text>
  <text x="1020" y="235" text-anchor="middle" fill="#94a3b8" font-size="11">All repos follow the</text>
  <text x="1020" y="250" text-anchor="middle" fill="#94a3b8" font-size="11">same epic.json contract</text>

  <!-- Note box -->
  <rect x="1140" y="155" width="210" height="125" rx="8" fill="#fef2f2" stroke="#fca5a5" stroke-width="1" filter="url(#shadowLight)"/>
  <text x="1245" y="178" text-anchor="middle" fill="#991b1b" font-size="11" font-weight="700">ENFORCEMENT</text>
  <line x1="1160" y1="186" x2="1330" y2="186" stroke="#fca5a5" stroke-width="0.5"/>
  <text x="1245" y="204" text-anchor="middle" fill="#7f1d1d" font-size="10">Builds fail immediately if</text>
  <text x="1245" y="219" text-anchor="middle" fill="#7f1d1d" font-size="10">chargeback fields are</text>
  <text x="1245" y="234" text-anchor="middle" fill="#7f1d1d" font-size="10">missing or empty.</text>
  <text x="1245" y="258" text-anchor="middle" fill="#7f1d1d" font-size="10" font-weight="600">100% tag coverage</text>
  <text x="1245" y="273" text-anchor="middle" fill="#7f1d1d" font-size="10" font-weight="600">by design.</text>

  <!-- Arrow: App Teams → ADO -->
  <line x1="700" y1="300" x2="700" y2="325" stroke="#3b82f6" stroke-width="2" marker-end="url(#arrowBlue)"/>
  <text x="714" y="317" fill="#3b82f6" font-size="10" font-weight="500">Trigger via ADO</text>

  <!-- ================================================================== -->
  <!-- LAYER 2: AZURE DEVOPS / EPIC PIPELINE -->
  <!-- ================================================================== -->
  <rect x="30" y="330" width="1340" height="310" rx="12" fill="url(#adoGrad)" stroke="#7c3aed" stroke-width="1.5" filter="url(#shadow)"/>
  <rect x="30" y="330" width="1340" height="36" rx="12" fill="#7c3aed"/>
  <rect x="30" y="354" width="1340" height="12" fill="#7c3aed"/>
  <text x="50" y="353" fill="#ffffff" font-size="14" font-weight="700">AZURE DEVOPS — EPIC PIPELINE FRAMEWORK</text>
  <text x="1350" y="353" text-anchor="end" fill="#ddd6fe" font-size="11">Owned by CI/CD Pipeline Team — the sole enterprise pipeline</text>

  <!-- EPIC Orchestrator -->
  <rect x="60" y="383" width="280" height="80" rx="8" fill="#ffffff" stroke="#7c3aed" stroke-width="1.5" filter="url(#shadowLight)"/>
  <text x="200" y="410" text-anchor="middle" fill="#5b21b6" font-size="14" font-weight="700">EPIC Orchestrator</text>
  <text x="200" y="428" text-anchor="middle" fill="#6b7280" font-size="10.5" font-family="monospace">epic-orchestrator.yml</text>
  <text x="200" y="448" text-anchor="middle" fill="#7c3aed" font-size="10.5" font-weight="600">pool: epic-agents ← hardcoded</text>

  <!-- Arrow Orchestrator → Engine -->
  <line x1="340" y1="423" x2="378" y2="423" stroke="#7c3aed" stroke-width="2" marker-end="url(#arrowPurple)"/>
  <text x="350" y="416" fill="#7c3aed" font-size="9">reads</text>
  <text x="345" y="440" fill="#7c3aed" font-size="9">epic.json</text>

  <!-- EPIC Engine -->
  <rect x="383" y="383" width="280" height="80" rx="8" fill="#ffffff" stroke="#7c3aed" stroke-width="1.5" filter="url(#shadowLight)"/>
  <text x="523" y="410" text-anchor="middle" fill="#5b21b6" font-size="14" font-weight="700">EPIC Engine</text>
  <text x="523" y="428" text-anchor="middle" fill="#6b7280" font-size="10.5" font-family="monospace">epic-engine.yml</text>
  <text x="523" y="448" text-anchor="middle" fill="#7c3aed" font-size="10.5" font-weight="600">Validates + tags chargeback</text>

  <!-- Arrow Engine → Stages -->
  <line x1="663" y1="423" x2="698" y2="423" stroke="#7c3aed" stroke-width="2" marker-end="url(#arrowPurple)"/>

  <!-- EPIC Stages -->
  <rect x="703" y="383" width="400" height="80" rx="8" fill="#ffffff" stroke="#7c3aed" stroke-width="1.5" filter="url(#shadowLight)"/>
  <text x="903" y="405" text-anchor="middle" fill="#5b21b6" font-size="13" font-weight="700">EPIC Stage Templates</text>
  <g transform="translate(723, 415)">
    <rect x="0" y="0" width="62" height="26" rx="4" fill="#ede9fe" stroke="#a78bfa" stroke-width="0.75"/>
    <text x="31" y="17" text-anchor="middle" fill="#5b21b6" font-size="9.5" font-weight="600">Build</text>
    <rect x="70" y="0" width="62" height="26" rx="4" fill="#ede9fe" stroke="#a78bfa" stroke-width="0.75"/>
    <text x="101" y="17" text-anchor="middle" fill="#5b21b6" font-size="9.5" font-weight="600">Test</text>
    <rect x="140" y="0" width="62" height="26" rx="4" fill="#ede9fe" stroke="#a78bfa" stroke-width="0.75"/>
    <text x="171" y="17" text-anchor="middle" fill="#5b21b6" font-size="9.5" font-weight="600">Scan</text>
    <rect x="210" y="0" width="62" height="26" rx="4" fill="#ede9fe" stroke="#a78bfa" stroke-width="0.75"/>
    <text x="241" y="17" text-anchor="middle" fill="#5b21b6" font-size="9.5" font-weight="600">Infra</text>
    <rect x="280" y="0" width="70" height="26" rx="4" fill="#ede9fe" stroke="#a78bfa" stroke-width="0.75"/>
    <text x="315" y="17" text-anchor="middle" fill="#5b21b6" font-size="9.5" font-weight="600">Deploy</text>
  </g>
  <text x="903" y="456" text-anchor="middle" fill="#6b7280" font-size="10">Dispatched by appType from epic.json</text>

  <!-- Variable Group -->
  <rect x="1130" y="383" width="220" height="80" rx="8" fill="#ffffff" stroke="#7c3aed" stroke-width="1.5" filter="url(#shadowLight)"/>
  <text x="1240" y="405" text-anchor="middle" fill="#5b21b6" font-size="12" font-weight="700">ADO Variable Group</text>
  <text x="1240" y="422" text-anchor="middle" fill="#6b7280" font-size="10" font-family="monospace">EPIC-Tool-Credentials</text>
  <line x1="1150" y1="430" x2="1330" y2="430" stroke="#ddd6fe" stroke-width="0.5"/>
  <text x="1150" y="445" fill="#475569" font-size="9" font-family="monospace">SONARQUBE_TOKEN</text>
  <text x="1150" y="457" fill="#475569" font-size="9" font-family="monospace">WIZ_CLIENT_ID / SECRET</text>

  <!-- Arrow Engine → Variable Group -->
  <path d="M 523 463 L 523 478 L 1240 478 L 1240 463" stroke="#7c3aed" stroke-width="1.5" fill="none" stroke-dasharray="5,3" marker-end="url(#arrowPurple)"/>
  <text x="860" y="474" fill="#7c3aed" font-size="9.5" font-weight="500">references (linked once in epic-engine.yml)</text>

  <!-- Build Tags Section -->
  <rect x="60" y="490" width="540" height="130" rx="8" fill="#ffffff" stroke="#7c3aed" stroke-width="1" filter="url(#shadowLight)"/>
  <text x="80" y="515" fill="#5b21b6" font-size="12" font-weight="700">Build Tags (applied automatically by EPIC Engine)</text>
  <line x1="60" y1="523" x2="600" y2="523" stroke="#ede9fe" stroke-width="1"/>

  <g transform="translate(80, 537)">
    <rect x="0" y="0" width="140" height="24" rx="12" fill="#fef3c7" stroke="#f59e0b" stroke-width="0.75"/>
    <text x="70" y="16" text-anchor="middle" fill="#92400e" font-size="10" font-weight="600">costcenter:CC-1234</text>

    <rect x="150" y="0" width="155" height="24" rx="12" fill="#fef3c7" stroke="#f59e0b" stroke-width="0.75"/>
    <text x="227" y="16" text-anchor="middle" fill="#92400e" font-size="10" font-weight="600">bu:Gas-Operations</text>

    <rect x="315" y="0" width="155" height="24" rx="12" fill="#dbeafe" stroke="#3b82f6" stroke-width="0.75"/>
    <text x="392" y="16" text-anchor="middle" fill="#1e40af" font-size="10" font-weight="600">project:my-project</text>

    <rect x="0" y="32" width="120" height="24" rx="12" fill="#dbeafe" stroke="#3b82f6" stroke-width="0.75"/>
    <text x="60" y="48" text-anchor="middle" fill="#1e40af" font-size="10" font-weight="600">app:my-app</text>

    <rect x="130" y="32" width="130" height="24" rx="12" fill="#dbeafe" stroke="#3b82f6" stroke-width="0.75"/>
    <text x="195" y="48" text-anchor="middle" fill="#1e40af" font-size="10" font-weight="600">apptype:dotnet</text>
  </g>
  <text x="80" y="610" fill="#6b7280" font-size="10">Yellow = from epic.json chargeback section     Blue = from ADO / epic.json app section</text>

  <!-- ADO Analytics -->
  <rect x="630" y="490" width="280" height="130" rx="8" fill="#ffffff" stroke="#7c3aed" stroke-width="1" filter="url(#shadowLight)"/>
  <text x="770" y="515" text-anchor="middle" fill="#5b21b6" font-size="12" font-weight="700">ADO Analytics (OData)</text>
  <line x1="630" y1="523" x2="910" y2="523" stroke="#ede9fe" stroke-width="1"/>
  <text x="770" y="545" text-anchor="middle" fill="#475569" font-size="10.5">Per-build duration by tag</text>
  <text x="770" y="562" text-anchor="middle" fill="#475569" font-size="10.5">Queue time, run time</text>
  <text x="770" y="579" text-anchor="middle" fill="#475569" font-size="10.5">Pool utilization metrics</text>
  <text x="770" y="600" text-anchor="middle" fill="#059669" font-size="10" font-weight="600">→ feeds FinOps chargeback</text>

  <!-- Pool Diagnostics -->
  <rect x="940" y="490" width="410" height="130" rx="8" fill="#ffffff" stroke="#7c3aed" stroke-width="1" filter="url(#shadowLight)"/>
  <text x="1145" y="515" text-anchor="middle" fill="#5b21b6" font-size="12" font-weight="700">ADO Pool Diagnostics</text>
  <line x1="940" y1="523" x2="1350" y2="523" stroke="#ede9fe" stroke-width="1"/>
  <text x="1145" y="545" text-anchor="middle" fill="#475569" font-size="10.5">Scaling events, provisioning errors</text>
  <text x="1145" y="562" text-anchor="middle" fill="#475569" font-size="10.5">Unhealthy agent tracking</text>
  <text x="1145" y="579" text-anchor="middle" fill="#475569" font-size="10.5">VM create / delete / reimage logs</text>

  <!-- Arrow: ADO → MDP -->
  <line x1="700" y1="640" x2="700" y2="668" stroke="#7c3aed" stroke-width="2" marker-end="url(#arrowPurple)"/>
  <text x="714" y="660" fill="#7c3aed" font-size="10" font-weight="500">Jobs dispatched to pool</text>

  <!-- ================================================================== -->
  <!-- LAYER 3: MANAGED DEVOPS POOLS -->
  <!-- ================================================================== -->
  <rect x="30" y="673" width="1340" height="200" rx="12" fill="url(#mdpGrad)" stroke="#db2777" stroke-width="1.5" filter="url(#shadow)"/>
  <rect x="30" y="673" width="1340" height="36" rx="12" fill="#db2777"/>
  <rect x="30" y="697" width="1340" height="12" fill="#db2777"/>
  <text x="50" y="696" fill="#ffffff" font-size="14" font-weight="700">MANAGED DEVOPS POOLS — COMPUTE</text>
  <text x="1350" y="696" text-anchor="end" fill="#fbcfe8" font-size="11">VMs managed by Microsoft · Config owned by CI/CD Pipeline Team</text>

  <!-- MDP Pool Box -->
  <rect x="60" y="725" width="520" height="130" rx="8" fill="#ffffff" stroke="#db2777" stroke-width="1.5" filter="url(#shadowLight)"/>
  <text x="80" y="748" fill="#9d174d" font-size="14" font-weight="700">epic-agents</text>
  <text x="260" y="748" fill="#6b7280" font-size="11">(single pool for entire enterprise)</text>

  <!-- Agent VMs -->
  <g transform="translate(80, 760)">
    <rect x="0" y="0" width="90" height="75" rx="6" fill="#fdf2f8" stroke="#f9a8d4" stroke-width="1"/>
    <text x="45" y="20" text-anchor="middle" fill="#9d174d" font-size="10" font-weight="600">Agent VM</text>
    <text x="45" y="36" text-anchor="middle" fill="#6b7280" font-size="8.5">Ubuntu 24.04</text>
    <text x="45" y="50" text-anchor="middle" fill="#6b7280" font-size="8.5">.NET 10, Node</text>
    <text x="45" y="62" text-anchor="middle" fill="#6b7280" font-size="8.5">Terraform, Docker</text>

    <rect x="100" y="0" width="90" height="75" rx="6" fill="#fdf2f8" stroke="#f9a8d4" stroke-width="1"/>
    <text x="145" y="20" text-anchor="middle" fill="#9d174d" font-size="10" font-weight="600">Agent VM</text>
    <text x="145" y="36" text-anchor="middle" fill="#6b7280" font-size="8.5">AWS CLI</text>
    <text x="145" y="50" text-anchor="middle" fill="#6b7280" font-size="8.5">Azure CLI</text>
    <text x="145" y="62" text-anchor="middle" fill="#6b7280" font-size="8.5">JFrog CLI</text>

    <rect x="200" y="0" width="90" height="75" rx="6" fill="#fdf2f8" stroke="#f9a8d4" stroke-width="1"/>
    <text x="245" y="20" text-anchor="middle" fill="#9d174d" font-size="10" font-weight="600">Agent VM</text>
    <text x="245" y="36" text-anchor="middle" fill="#6b7280" font-size="8.5">SonarScanner</text>
    <text x="245" y="50" text-anchor="middle" fill="#6b7280" font-size="8.5">Wiz CLI</text>
    <text x="245" y="62" text-anchor="middle" fill="#6b7280" font-size="8.5">Packer</text>

    <rect x="300" y="0" width="90" height="75" rx="6" fill="#fdf2f8" stroke="#f9a8d4" stroke-width="1" stroke-dasharray="5,3"/>
    <text x="345" y="30" text-anchor="middle" fill="#9d174d" font-size="10">Auto-scales</text>
    <text x="345" y="46" text-anchor="middle" fill="#9d174d" font-size="10">0 → 20</text>
    <text x="345" y="62" text-anchor="middle" fill="#6b7280" font-size="8.5">per demand</text>
  </g>

  <!-- MDP Config -->
  <rect x="610" y="725" width="340" height="130" rx="8" fill="#ffffff" stroke="#db2777" stroke-width="1" filter="url(#shadowLight)"/>
  <text x="780" y="748" text-anchor="middle" fill="#9d174d" font-size="12" font-weight="700">Pool Configuration</text>
  <line x1="630" y1="756" x2="930" y2="756" stroke="#fce7f3" stroke-width="0.5"/>
  <text x="630" y="775" fill="#475569" font-size="10.5">Agent Mode: <tspan font-weight="600" fill="#9d174d">Stateless</tspan> (fresh VM per job)</text>
  <text x="630" y="793" fill="#475569" font-size="10.5">Max Agents: <tspan font-weight="600" fill="#9d174d">20</tspan></text>
  <text x="630" y="811" fill="#475569" font-size="10.5">Standby: <tspan font-weight="600" fill="#9d174d">4</tspan> weekday 08-18, <tspan font-weight="600" fill="#9d174d">0</tspan> off-hours</text>
  <text x="630" y="829" fill="#475569" font-size="10.5">Grace Period: <tspan font-weight="600" fill="#9d174d">15 min</tspan></text>
  <text x="630" y="847" fill="#475569" font-size="10.5">VNET Injection: <tspan font-weight="600" fill="#9d174d">snet-ado-agents</tspan></text>

  <!-- Managed Identity -->
  <rect x="980" y="725" width="370" height="130" rx="8" fill="#ffffff" stroke="#db2777" stroke-width="1.5" filter="url(#shadowLight)"/>
  <text x="1165" y="748" text-anchor="middle" fill="#9d174d" font-size="12" font-weight="700">System-Assigned Managed Identity</text>
  <line x1="1000" y1="756" x2="1330" y2="756" stroke="#fce7f3" stroke-width="0.5"/>
  <text x="1165" y="778" text-anchor="middle" fill="#475569" font-size="10.5">Attached to MDP pool resource</text>
  <text x="1165" y="798" text-anchor="middle" fill="#475569" font-size="10.5">Permissions:</text>
  <text x="1165" y="818" text-anchor="middle" fill="#9d174d" font-size="11" font-weight="600" font-family="monospace">Key Vault → Get, List secrets</text>
  <text x="1165" y="842" text-anchor="middle" fill="#6b7280" font-size="10">No PATs, no service principals,</text>
  <text x="1165" y="856" text-anchor="middle" fill="#6b7280" font-size="10">no credentials to manage</text>

  <!-- Arrow: MDP → Azure Infra -->
  <line x1="700" y1="873" x2="700" y2="903" stroke="#3b82f6" stroke-width="2" marker-end="url(#arrowBlue)"/>

  <!-- ================================================================== -->
  <!-- LAYER 4: AZURE INFRASTRUCTURE -->
  <!-- ================================================================== -->
  <rect x="30" y="908" width="1340" height="240" rx="12" fill="url(#azureGrad)" stroke="#2563eb" stroke-width="1.5" filter="url(#shadow)"/>
  <rect x="30" y="908" width="1340" height="36" rx="12" fill="#2563eb"/>
  <rect x="30" y="932" width="1340" height="12" fill="#2563eb"/>
  <text x="50" y="931" fill="#ffffff" font-size="14" font-weight="700">AZURE INFRASTRUCTURE (Single Subscription)</text>
  <text x="1350" y="931" text-anchor="end" fill="#bfdbfe" font-size="11">Owned by CI/CD Pipeline Team</text>

  <!-- VNET -->
  <rect x="60" y="960" width="500" height="170" rx="8" fill="#ffffff" stroke="#2563eb" stroke-width="1.5" filter="url(#shadowLight)"/>
  <text x="80" y="985" fill="#1e40af" font-size="13" font-weight="700">vnet-epic-cicd</text>

  <!-- Subnet -->
  <rect x="80" y="998" width="460" height="55" rx="6" fill="#eff6ff" stroke="#93c5fd" stroke-width="1"/>
  <text x="100" y="1018" fill="#1e40af" font-size="11" font-weight="600">Subnet: snet-ado-agents</text>
  <text x="100" y="1036" fill="#475569" font-size="10">MDP agents injected here via "bring your own VNET"</text>

  <!-- NSG -->
  <rect x="80" y="1062" width="460" height="55" rx="6" fill="#fef2f2" stroke="#fca5a5" stroke-width="1"/>
  <text x="100" y="1082" fill="#991b1b" font-size="11" font-weight="600">NSG: nsg-ado-agents</text>
  <text x="100" y="1098" fill="#475569" font-size="10">Outbound: PG&amp;E network, dev.azure.com, package feeds · No inbound from internet</text>

  <!-- Key Vault -->
  <rect x="590" y="960" width="260" height="170" rx="8" fill="#ffffff" stroke="#2563eb" stroke-width="1.5" filter="url(#shadowLight)"/>
  <text x="720" y="985" text-anchor="middle" fill="#1e40af" font-size="13" font-weight="700">Azure Key Vault</text>
  <text x="720" y="1002" text-anchor="middle" fill="#6b7280" font-size="10" font-family="monospace">kv-epic-cicd</text>
  <line x1="610" y1="1010" x2="830" y2="1010" stroke="#bfdbfe" stroke-width="0.5"/>
  <text x="610" y="1030" fill="#475569" font-size="10" font-family="monospace">sonarqube-token</text>
  <text x="610" y="1046" fill="#475569" font-size="10" font-family="monospace">wiz-client-id</text>
  <text x="610" y="1062" fill="#475569" font-size="10" font-family="monospace">wiz-client-secret</text>
  <text x="610" y="1078" fill="#475569" font-size="10" font-family="monospace">jfrog-api-key</text>
  <text x="610" y="1094" fill="#475569" font-size="10" font-family="monospace">github-pat</text>
  <text x="610" y="1118" fill="#6b7280" font-size="9.5" font-style="italic">Rotate here → every build gets it</text>

  <!-- Compute Gallery -->
  <rect x="880" y="960" width="225" height="170" rx="8" fill="#ffffff" stroke="#2563eb" stroke-width="1.5" filter="url(#shadowLight)"/>
  <text x="992" y="985" text-anchor="middle" fill="#1e40af" font-size="13" font-weight="700">Azure Compute Gallery</text>
  <line x1="900" y1="994" x2="1085" y2="994" stroke="#bfdbfe" stroke-width="0.5"/>
  <text x="992" y="1015" text-anchor="middle" fill="#475569" font-size="10.5">Golden Image:</text>
  <text x="992" y="1033" text-anchor="middle" fill="#1e40af" font-size="11" font-weight="600">Ubuntu 24.04</text>
  <text x="992" y="1053" text-anchor="middle" fill="#475569" font-size="10">.NET 10, Node LTS, Terraform</text>
  <text x="992" y="1068" text-anchor="middle" fill="#475569" font-size="10">AWS CLI, Azure CLI, Docker</text>
  <text x="992" y="1083" text-anchor="middle" fill="#475569" font-size="10">SonarScanner, Wiz CLI, JFrog CLI</text>
  <text x="992" y="1105" text-anchor="middle" fill="#6b7280" font-size="9.5" font-style="italic">Built weekly by Packer pipeline</text>
  <text x="992" y="1120" text-anchor="middle" fill="#6b7280" font-size="9.5" font-style="italic">No ADO agent binary (MDP adds it)</text>

  <!-- Azure Resource Tags -->
  <rect x="1135" y="960" width="215" height="170" rx="8" fill="#ffffff" stroke="#2563eb" stroke-width="1.5" filter="url(#shadowLight)"/>
  <text x="1242" y="985" text-anchor="middle" fill="#1e40af" font-size="13" font-weight="700">Resource Tags</text>
  <line x1="1155" y1="994" x2="1330" y2="994" stroke="#bfdbfe" stroke-width="0.5"/>
  <g transform="translate(1155, 1005)">
    <text x="0" y="12" fill="#475569" font-size="10" font-family="monospace">Service: ADO-Agents</text>
    <text x="0" y="28" fill="#475569" font-size="10" font-family="monospace">ManagedBy: CICD-Team</text>
    <text x="0" y="44" fill="#475569" font-size="10" font-family="monospace">Environment: Shared-CI</text>
    <text x="0" y="60" fill="#475569" font-size="10" font-family="monospace">CostCenter: CC-0000</text>
  </g>
  <line x1="1155" y1="1076" x2="1330" y2="1076" stroke="#bfdbfe" stroke-width="0.5"/>
  <text x="1242" y="1094" text-anchor="middle" fill="#059669" font-size="10" font-weight="600">Tag Inheritance enabled</text>
  <text x="1242" y="1110" text-anchor="middle" fill="#6b7280" font-size="9.5">RG tags flow to all child</text>
  <text x="1242" y="1124" text-anchor="middle" fill="#6b7280" font-size="9.5">resource usage records</text>

  <!-- Arrow: Managed Identity to Key Vault (clean L through inter-layer gap) -->
  <path d="M 1165 855 L 1165 900 L 720 900 L 720 960" stroke="#dc2626" stroke-width="2" fill="none" marker-end="url(#arrowRed)" stroke-dasharray="6,3"/>
  <text x="775" y="895" fill="#dc2626" font-size="10" font-weight="600">Managed Identity → Key Vault (Get/List secrets)</text>

  <!-- Arrow: Variable Group to Key Vault (routed through right margin) -->
  <path d="M 1350 423 L 1410 423 L 1410 884 L 780 884 L 780 960" stroke="#7c3aed" stroke-width="1.5" fill="none" marker-end="url(#arrowPurple)" stroke-dasharray="5,3"/>
  <text x="1422" y="700" fill="#7c3aed" font-size="9.5" font-weight="500" transform="rotate(90, 1422, 700)">Variable Group linked to Key Vault</text>

  <!-- ================================================================== -->
  <!-- NETWORK PEERING ZONE -->
  <!-- ================================================================== -->
  <rect x="60" y="1168" width="500" height="48" rx="8" fill="#fef9c3" stroke="#d97706" stroke-width="1.5" filter="url(#shadowLight)"/>
  <text x="310" y="1198" text-anchor="middle" fill="#92400e" font-size="13" font-weight="700">VNET Peering  /  ExpressRoute</text>

  <!-- Arrows in/out of peering -->
  <line x1="310" y1="1148" x2="310" y2="1168" stroke="#d97706" stroke-width="2" marker-end="url(#arrowOrange)"/>
  <line x1="310" y1="1216" x2="310" y2="1238" stroke="#d97706" stroke-width="2" marker-end="url(#arrowOrange)"/>

  <!-- ================================================================== -->
  <!-- LAYER 5: PG&E CORPORATE NETWORK -->
  <!-- ================================================================== -->
  <rect x="30" y="1243" width="640" height="180" rx="12" fill="url(#pgeGrad)" stroke="#d97706" stroke-width="1.5" filter="url(#shadow)"/>
  <rect x="30" y="1243" width="640" height="36" rx="12" fill="#d97706"/>
  <rect x="30" y="1267" width="640" height="12" fill="#d97706"/>
  <text x="50" y="1266" fill="#ffffff" font-size="14" font-weight="700">PG&amp;E CORPORATE NETWORK</text>
  <text x="650" y="1266" text-anchor="end" fill="#fef3c7" font-size="11">Internal tools accessible via peering</text>

  <!-- SonarQube -->
  <rect x="60" y="1296" width="180" height="108" rx="8" fill="#ffffff" stroke="#d97706" stroke-width="1" filter="url(#shadowLight)"/>
  <text x="150" y="1322" text-anchor="middle" fill="#92400e" font-size="13" font-weight="700">SonarQube</text>
  <text x="150" y="1342" text-anchor="middle" fill="#6b7280" font-size="10">Code quality &amp; SAST</text>
  <line x1="80" y1="1350" x2="220" y2="1350" stroke="#fde68a" stroke-width="0.5"/>
  <text x="150" y="1368" text-anchor="middle" fill="#475569" font-size="9.5" font-family="monospace">sonarqube.pge.com</text>
  <text x="150" y="1386" text-anchor="middle" fill="#475569" font-size="9.5">Auth: SONARQUBE_TOKEN</text>
  <text x="150" y="1400" text-anchor="middle" fill="#6b7280" font-size="9" font-style="italic">(from Key Vault)</text>

  <!-- Wiz -->
  <rect x="260" y="1296" width="180" height="108" rx="8" fill="#ffffff" stroke="#d97706" stroke-width="1" filter="url(#shadowLight)"/>
  <text x="350" y="1322" text-anchor="middle" fill="#92400e" font-size="13" font-weight="700">Wiz</text>
  <text x="350" y="1342" text-anchor="middle" fill="#6b7280" font-size="10">Cloud security scanning</text>
  <line x1="280" y1="1350" x2="420" y2="1350" stroke="#fde68a" stroke-width="0.5"/>
  <text x="350" y="1368" text-anchor="middle" fill="#475569" font-size="9.5" font-family="monospace">wiz-agent endpoint</text>
  <text x="350" y="1386" text-anchor="middle" fill="#475569" font-size="9.5">Auth: WIZ_CLIENT_ID/SECRET</text>
  <text x="350" y="1400" text-anchor="middle" fill="#6b7280" font-size="9" font-style="italic">(from Key Vault)</text>

  <!-- JFrog -->
  <rect x="460" y="1296" width="190" height="108" rx="8" fill="#ffffff" stroke="#d97706" stroke-width="1" filter="url(#shadowLight)"/>
  <text x="555" y="1322" text-anchor="middle" fill="#92400e" font-size="13" font-weight="700">JFrog Artifactory</text>
  <text x="555" y="1342" text-anchor="middle" fill="#6b7280" font-size="10">Package management</text>
  <line x1="480" y1="1350" x2="630" y2="1350" stroke="#fde68a" stroke-width="0.5"/>
  <text x="555" y="1368" text-anchor="middle" fill="#475569" font-size="9.5" font-family="monospace">artifactory.pge.com</text>
  <text x="555" y="1386" text-anchor="middle" fill="#475569" font-size="9.5">Auth: JFROG_API_KEY</text>
  <text x="555" y="1400" text-anchor="middle" fill="#6b7280" font-size="9" font-style="italic">(from Key Vault)</text>

  <!-- ================================================================== -->
  <!-- LAYER 6: FINOPS / COST MANAGEMENT -->
  <!-- ================================================================== -->
  <rect x="700" y="1243" width="670" height="180" rx="12" fill="url(#finopsGrad)" stroke="#059669" stroke-width="1.5" filter="url(#shadow)"/>
  <rect x="700" y="1243" width="670" height="36" rx="12" fill="#059669"/>
  <rect x="700" y="1267" width="670" height="12" fill="#059669"/>
  <text x="720" y="1266" fill="#ffffff" font-size="14" font-weight="700">FINOPS — CHARGEBACK REPORTING</text>
  <text x="1350" y="1266" text-anchor="end" fill="#a7f3d0" font-size="11">CI/CD Pipeline Team + FinOps</text>

  <!-- Azure Cost Management -->
  <rect x="720" y="1296" width="200" height="108" rx="8" fill="#ffffff" stroke="#059669" stroke-width="1" filter="url(#shadowLight)"/>
  <text x="820" y="1320" text-anchor="middle" fill="#065f46" font-size="12" font-weight="700">Azure Cost Mgmt</text>
  <line x1="740" y1="1328" x2="900" y2="1328" stroke="#a7f3d0" stroke-width="0.5"/>
  <text x="820" y="1348" text-anchor="middle" fill="#475569" font-size="10">Total pool cost by</text>
  <text x="820" y="1364" text-anchor="middle" fill="#475569" font-size="10">resource tags</text>
  <text x="820" y="1384" text-anchor="middle" fill="#059669" font-size="10" font-weight="600">Service: ADO-Agents</text>

  <!-- Chargeback Formula -->
  <rect x="940" y="1296" width="200" height="108" rx="8" fill="#ffffff" stroke="#059669" stroke-width="1" filter="url(#shadowLight)"/>
  <text x="1040" y="1318" text-anchor="middle" fill="#065f46" font-size="12" font-weight="700">Chargeback Formula</text>
  <line x1="960" y1="1326" x2="1120" y2="1326" stroke="#a7f3d0" stroke-width="0.5"/>
  <text x="1040" y="1348" text-anchor="middle" fill="#475569" font-size="9.5" font-family="monospace">Pool Cost</text>
  <text x="1040" y="1363" text-anchor="middle" fill="#475569" font-size="9.5" font-family="monospace">÷ Total Build Mins</text>
  <text x="1040" y="1378" text-anchor="middle" fill="#475569" font-size="9.5" font-family="monospace">× Team Build Mins</text>
  <line x1="980" y1="1385" x2="1100" y2="1385" stroke="#6b7280" stroke-width="0.75"/>
  <text x="1040" y="1400" text-anchor="middle" fill="#059669" font-size="10" font-weight="700" font-family="monospace">= Team Chargeback</text>

  <!-- Power BI -->
  <rect x="1160" y="1296" width="190" height="108" rx="8" fill="#ffffff" stroke="#059669" stroke-width="1" filter="url(#shadowLight)"/>
  <text x="1255" y="1320" text-anchor="middle" fill="#065f46" font-size="12" font-weight="700">Monthly Report</text>
  <line x1="1180" y1="1328" x2="1330" y2="1328" stroke="#a7f3d0" stroke-width="0.5"/>
  <text x="1255" y="1348" text-anchor="middle" fill="#475569" font-size="10">Power BI or</text>
  <text x="1255" y="1364" text-anchor="middle" fill="#475569" font-size="10">Azure Workbook</text>
  <text x="1255" y="1386" text-anchor="middle" fill="#475569" font-size="10">Cost per BU/project</text>
  <text x="1255" y="1400" text-anchor="middle" fill="#475569" font-size="10">Delivered to FinOps</text>

  <!-- Arrow: ADO Analytics → FinOps (routed through right margin) -->
  <path d="M 770 620 L 770 655 L 1445 655 L 1445 1228 L 1040 1228 L 1040 1296" stroke="#059669" stroke-width="1.5" fill="none" marker-end="url(#arrowGreen)" stroke-dasharray="5,3"/>
  <text x="1455" y="940" fill="#059669" font-size="9.5" font-weight="500" transform="rotate(90, 1455, 940)">ADO Analytics → FinOps (build duration by tag)</text>

  <!-- Arrow: Azure Resource Tags → Cost Mgmt (clean L through open gap) -->
  <path d="M 1242 1130 L 1242 1236 L 820 1236 L 820 1296" stroke="#059669" stroke-width="1.5" fill="none" marker-end="url(#arrowGreen)" stroke-dasharray="5,3"/>
  <text x="920" y="1232" fill="#059669" font-size="9.5" font-weight="500">Resource tags → Cost Management</text>

  <!-- ================================================================== -->
  <!-- LEGEND -->
  <!-- ================================================================== -->
  <rect x="30" y="1450" width="1340" height="210" rx="12" fill="#ffffff" stroke="#e2e8f0" stroke-width="1.5" filter="url(#shadow)"/>
  <text x="700" y="1478" text-anchor="middle" fill="#1e293b" font-size="15" font-weight="700">Architecture Legend</text>
  <line x1="50" y1="1488" x2="1350" y2="1488" stroke="#e2e8f0" stroke-width="1"/>

  <!-- Layer Colors -->
  <g transform="translate(60, 1505)">
    <text x="0" y="0" fill="#475569" font-size="12" font-weight="700">Layers</text>
    <rect x="0" y="10" width="24" height="14" rx="3" fill="#bae6fd" stroke="#0284c7" stroke-width="0.75"/>
    <text x="32" y="22" fill="#475569" font-size="11">Application Teams (app repos + epic.json)</text>
    <rect x="0" y="32" width="24" height="14" rx="3" fill="#ddd6fe" stroke="#7c3aed" stroke-width="0.75"/>
    <text x="32" y="44" fill="#475569" font-size="11">Azure DevOps / EPIC Pipeline Framework</text>
    <rect x="0" y="54" width="24" height="14" rx="3" fill="#fbcfe8" stroke="#db2777" stroke-width="0.75"/>
    <text x="32" y="66" fill="#475569" font-size="11">Managed DevOps Pools (Microsoft-managed VMs)</text>
    <rect x="0" y="76" width="24" height="14" rx="3" fill="#bfdbfe" stroke="#2563eb" stroke-width="0.75"/>
    <text x="32" y="88" fill="#475569" font-size="11">Azure Infrastructure (your subscription)</text>
    <rect x="0" y="98" width="24" height="14" rx="3" fill="#fde68a" stroke="#d97706" stroke-width="0.75"/>
    <text x="32" y="110" fill="#475569" font-size="11">PG&amp;E Corporate Network (internal tools)</text>
    <rect x="0" y="120" width="24" height="14" rx="3" fill="#a7f3d0" stroke="#059669" stroke-width="0.75"/>
    <text x="32" y="132" fill="#475569" font-size="11">FinOps / Chargeback Reporting</text>
  </g>

  <!-- Arrows -->
  <g transform="translate(500, 1505)">
    <text x="0" y="0" fill="#475569" font-size="12" font-weight="700">Data Flows</text>
    <line x1="0" y1="18" x2="40" y2="18" stroke="#3b82f6" stroke-width="2" marker-end="url(#arrowBlue)"/>
    <text x="50" y="22" fill="#475569" font-size="11">Job dispatch / infrastructure flow</text>
    <line x1="0" y1="40" x2="40" y2="40" stroke="#dc2626" stroke-width="2" stroke-dasharray="6,3" marker-end="url(#arrowRed)"/>
    <text x="50" y="44" fill="#475569" font-size="11">Managed Identity → Key Vault (secret access)</text>
    <line x1="0" y1="62" x2="40" y2="62" stroke="#7c3aed" stroke-width="1.5" stroke-dasharray="5,3" marker-end="url(#arrowPurple)"/>
    <text x="50" y="66" fill="#475569" font-size="11">Variable Group → Key Vault linkage</text>
    <line x1="0" y1="84" x2="40" y2="84" stroke="#d97706" stroke-width="2" marker-end="url(#arrowOrange)"/>
    <text x="50" y="88" fill="#475569" font-size="11">Network peering (VNET ↔ PG&amp;E)</text>
    <line x1="0" y1="106" x2="40" y2="106" stroke="#059669" stroke-width="1.5" stroke-dasharray="5,3" marker-end="url(#arrowGreen)"/>
    <text x="50" y="110" fill="#475569" font-size="11">Cost / analytics data → FinOps</text>
  </g>

  <!-- Key Principles -->
  <g transform="translate(930, 1505)">
    <text x="0" y="0" fill="#475569" font-size="12" font-weight="700">Key Principles</text>
    <text x="0" y="22" fill="#475569" font-size="11">One pool: <tspan font-weight="600" font-family="monospace">epic-agents</tspan></text>
    <text x="0" y="42" fill="#475569" font-size="11">One image: Ubuntu 24.04 golden image</text>
    <text x="0" y="62" fill="#475569" font-size="11">One identity: System-assigned Managed Identity</text>
    <text x="0" y="82" fill="#475569" font-size="11">One Key Vault: <tspan font-weight="600" font-family="monospace">kv-epic-cicd</tspan></text>
    <text x="0" y="102" fill="#475569" font-size="11">One pipeline: EPIC (enterprise-wide)</text>
    <text x="0" y="122" fill="#475569" font-size="11">One team: CI/CD Pipeline Team owns everything</text>
    <text x="0" y="142" fill="#475569" font-size="11">App teams: just fill in <tspan font-weight="600" font-family="monospace">epic.json</tspan></text>
  </g>
</svg>